PathFileType	4	(X/Y/Z)	KinectSkeleton.trc																																																	
DataRate	CameraRate	NumFrames	NumMarkers	Units	OrigDataRate	OrigDataStartFrame	OrigNumFrames																																													
60	60	22	17	mm	60	186	300																																													
Frame#	Time	Neck			ShoulderMid			R.Shoulder			L.Shoulder			R.Elbow			L.Elbow			R.Wrist			L.Wrist			HipCenter			R.Hip			L.Hip			R.Knee			L.Knee			R.Ankle			L.Ankle			R.Foot			L.Foot		
		X1	Y1	Z1	X2	Y2	Z2	X3	Y3	Z3	X4	Y4	Z4	X5	Y5	Z5	X6	Y6	Z6	X7	Y7	Z7	X8	Y8	Z8	X9	Y9	Z9	X10	Y10	Z10	X11	Y11	Z11	X12	Y12	Z12	X13	Y13	Z13	X14	Y14	Z14	X15	Y15	Z15	X16	Y16	Z16	X17	Y17	Z17
																																																				
186	9.926	-1035.016	288.022	157.78	-1035.016	288.022	157.78	-935.595	240.565	284.043	-1054.227	221.171	-5.452	-821.393	9.91	361.343	-1006.774	-2.996	-136.063	-783.641	186.579	228.628	-903.738	181.583	-70.367	-758.575	-132.29	89.468	-729.1	-122.934	161.593	-791.261	-142.666	9.484	-389.974	-273.217	71.678	-487.003	-304.118	-155.897	-320.949	-635.252	53.631	-410.709	-658.592	-112.691	-177.231	-688.532	-6.105	-258.836	-725.704	-179.022
187	9.971	-1040.525	287.919	160.517	-1040.525	287.919	160.517	-939.154	242.874	288.46	-1055.527	223.434	-5.838	-816.537	12.888	366.099	-1011.976	-3.892	-138.733	-799.979	196.376	233.746	-918.914	186.708	-66.677	-765.227	-142.085	94.005	-736.182	-133.914	167.463	-797.437	-151.147	12.544	-394.811	-295.939	87.501	-489.008	-323.993	-143.974	-316.709	-660.356	64.377	-404.134	-681.828	-107.955	-167.88	-707.442	6.534	-246.225	-741.833	-172.782
188	10.021	-1039.947	288.357	161.73	-1039.947	288.357	161.73	-935.454	246.614	286.541	-1051.978	222.815	-2.982	-809.806	22.134	368.346	-1004.784	2.334	-142.09	-804.388	205.13	237.246	-928.044	195.946	-64.181	-762.796	-136.52	101.518	-734.029	-126.887	174.275	-794.698	-147.203	20.834	-404.247	-308.421	101.613	-497.15	-338.255	-128.404	-316.723	-668.034	81.443	-403.585	-690.991	-91.445	-169.014	-712.272	22.018	-245.814	-747.693	-155.875
189	10.064	-1042.731	292.577	159.438	-1042.731	292.577	159.438	-931.3	257.334	283.104	-1055.16	225.808	-7.334	-803.832	28.945	366.049	-1004.669	0.38	-145.727	-813.358	216.216	234.801	-934.212	199.605	-65.533	-763.043	-140.791	100.833	-732.137	-129.809	173.939	-797.317	-152.97	19.762	-399.281	-319.633	102.915	-498.446	-351.109	-133.913	-313.251	-686.13	87.787	-402.684	-708.497	-87.951	-164.439	-733.662	26.076	-242.37	-767.157	-152.661
190	10.113	-1039.482	296.165	158.619	-1039.482	296.165	158.619	-920.01	266.156	277.02	-1060.245	225.725	-6.947	-797.777	33.629	363.114	-999.98	3.967	-151.176	-826.066	224.591	236.985	-945.756	206.887	-63.214	-758.129	-139.363	102.143	-724.384	-125.298	174.117	-795.551	-154.96	22.328	-394.699	-324.267	97.475	-502.178	-357.904	-142.697	-306.883	-693.451	88.749	-404.959	-716.156	-85.211	-161.38	-747.967	21.713	-246.806	-782.335	-151.829
191	10.159	-1039.388	298.08	158.697	-1039.388	298.08	158.697	-912.182	275.914	271.529	-1061.03	226.092	-6.87	-797.578	38.089	360.145	-995.091	6.772	-156.019	-831.94	232.328	237.472	-949.175	210.367	-60.843	-749.724	-135.549	102.832	-711.954	-117.107	172.446	-791.61	-155.999	25.634	-385.46	-323.579	87.612	-509.575	-371.815	-149.417	-291.105	-694.11	90.859	-401.28	-726.819	-75.776	-150.815	-754.318	15.014	-245.99	-797.964	-147.551
192	10.203	-1039.983	298.075	158.821	-1039.983	298.075	158.821	-912.747	276.067	271.711	-1061.37	226.151	-6.858	-797.306	38.414	359.931	-993.961	7.356	-156.252	-832.555	232.843	237.694	-949.514	211.134	-60.625	-749.814	-135.426	102.836	-712.052	-116.975	172.477	-791.69	-155.888	25.608	-385.324	-323.263	87.615	-509.6	-371.896	-149.35	-290.407	-693.756	90.709	-401.436	-726.972	-75.358	-149.994	-753.748	14.82	-246.115	-798.282	-147.029
193	10.252	-1035.914	298.15	160.194	-1035.914	298.15	160.194	-911.04	279.418	276.462	-1061.945	227.772	-5.685	-798.951	37.574	361.15	-983.787	18.565	-165.281	-833.456	234.218	240.444	-956.357	218.554	-54.243	-746.814	-138.299	106.335	-707.844	-118.566	175.345	-790.03	-160.182	29.806	-375.827	-315.835	82.39	-508.23	-373.513	-152.427	-280.447	-687.729	91.346	-401.357	-728.801	-70.105	-141.641	-754.654	16.739	-247.837	-808.655	-138.538
194	10.298	-1032.065	293.417	159.532	-1032.065	293.417	159.532	-909.047	271.31	272.397	-1059.321	224.691	-2.56	-799.058	37.444	361.698	-984.15	23.56	-163.527	-831.135	227.087	239.103	-955.58	218.275	-53.983	-749.702	-133.613	104.401	-711.314	-114.287	171.693	-792.273	-155.044	29.775	-390.02	-314.25	84.528	-518.053	-371.544	-140.723	-289.619	-675.99	89.538	-412.593	-719.739	-65.362	-153.215	-737.967	14.911	-262.89	-796.544	-134.548
195	10.342	-1031.76	292.911	160.165	-1031.76	292.911	160.165	-908.835	270.426	272.866	-1059.287	224.854	-1.944	-799.525	36.284	361.553	-984.266	25.017	-164.201	-831.263	226.171	239.615	-956.146	218.839	-53.366	-749.737	-133.735	104.468	-711.379	-114.464	171.712	-792.275	-155.106	29.897	-390.416	-314.184	84.264	-518.451	-371.654	-140.411	-290.253	-675.658	88.957	-414.054	-719.689	-64.412	-154.061	-737.534	14.184	-264.615	-796.895	-133.308
196	10.39	-1031.797	292.892	160.181	-1031.797	292.892	160.181	-908.869	270.41	272.878	-1059.325	224.844	-1.931	-799.538	36.27	361.541	-984.277	25.041	-164.217	-831.301	226.167	239.628	-956.204	218.853	-53.351	-749.746	-133.736	104.468	-711.389	-114.464	171.712	-792.282	-155.107	29.897	-390.42	-314.173	84.262	-518.454	-371.65	-140.408	-290.249	-675.644	88.951	-414.06	-719.683	-64.399	-154.056	-737.515	14.177	-264.621	-796.891	-133.291
197	10.435	-1034.561	291.327	159.113	-1034.561	291.327	159.113	-916.032	273.602	274.207	-1062.897	227.935	-2.35	-796.669	44.413	355.111	-984.297	33.399	-165.449	-838.669	235.54	242.311	-964.75	224.454	-52.021	-751.672	-129.896	103.381	-713.857	-110.767	170.136	-793.608	-151.11	29.351	-392.857	-303.448	82.206	-521.157	-364.168	-139.749	-294.309	-661.898	88.493	-419.242	-709.186	-62.614	-159.946	-726.201	15.785	-271.421	-788.858	-127.871
198	10.479	-1034.517	291.397	159.139	-1034.517	291.397	159.139	-915.982	273.648	274.233	-1062.874	228.02	-2.333	-796.642	44.419	355.096	-984.317	33.478	-165.463	-838.623	235.577	242.324	-964.731	224.526	-52.012	-751.667	-129.873	103.386	-713.848	-110.746	170.144	-793.608	-151.083	29.354	-392.844	-303.445	82.194	-521.164	-364.166	-139.761	-294.305	-661.913	88.47	-419.28	-709.208	-62.616	-159.94	-726.221	15.752	-271.461	-788.9	-127.873
199	10.525	-1034.427	291.573	159.28	-1034.427	291.573	159.28	-915.845	273.733	274.333	-1062.876	228.291	-2.221	-796.521	44.388	354.962	-984.31	33.892	-165.551	-838.521	235.66	242.355	-964.819	224.856	-51.909	-751.677	-129.797	103.403	-713.845	-110.681	170.164	-793.633	-150.996	29.368	-392.815	-303.358	82.13	-521.211	-364.125	-139.794	-294.251	-661.85	88.341	-419.459	-709.222	-62.584	-159.883	-726.143	15.586	-271.653	-788.988	-127.819
200	10.571	-1028.362	289.057	158.8	-1028.362	289.057	158.8	-917.81	269.918	274.127	-1061.06	226.064	3.701	-792.863	52.483	351.254	-984.671	44.477	-162.119	-840.16	235.964	241.727	-965.2	228.16	-49.916	-766.795	-127.994	106.129	-729.005	-110.11	170.333	-808.702	-147.827	34.93	-416.552	-292.029	80.137	-544.132	-352.809	-129.816	-322.011	-639.578	87.7	-448.38	-688.862	-59.119	-190.263	-701.727	20.06	-305.524	-766.688	-122.428
201	10.619	-1018.418	286.356	155.787	-1018.418	286.356	155.787	-916.047	261.359	271.487	-1051.983	223.193	6.317	-791.788	54.483	351.571	-986.175	49.669	-160.513	-838.105	231.362	244.083	-964.713	226.115	-49.724	-779.733	-127.882	110.898	-743.319	-111.573	173.517	-820.114	-145.967	41.457	-439.806	-285.769	84.367	-562.428	-343.809	-117.131	-356.241	-624.643	93.019	-480.092	-672.535	-49.835	-227.456	-683	27.941	-342.376	-747.485	-113.367
202	10.668	-1020.593	286.73	157.023	-1020.593	286.73	157.023	-921.085	258.464	273.556	-1050.768	224.209	7.195	-789.377	57.96	353.102	-987.399	51.232	-158.906	-839.452	234.607	249.495	-967.374	225.545	-46.856	-786.927	-128.385	112.643	-752.669	-114.14	176.442	-824.918	-144.184	41.892	-451.997	-291.517	92.885	-567.021	-342.701	-110.443	-377.689	-630.472	97.138	-497.333	-672.735	-45.964	-247.88	-685.506	33.446	-358.915	-745.238	-108.094
203	10.728	-1025.135	288.847	158.292	-1025.135	288.847	158.292	-921.584	259.97	274.397	-1059.33	225.208	7.128	-787.161	55.969	352.107	-988.895	50.003	-159.151	-838.58	235.057	247.152	-969.091	226.66	-45.152	-784.328	-129.631	108.138	-748.547	-114.81	172.205	-824.007	-146.066	37.09	-446.177	-298.152	85.404	-563.664	-347.603	-119.329	-377.2	-643.296	91.216	-496.394	-682.36	-50.326	-248.625	-704.104	24.887	-358.333	-760.186	-113.387
204	10.772	-1023.803	286.47	160.551	-1023.803	286.47	160.551	-920.395	258.39	276.46	-1056.278	225.799	8.516	-783.155	55.842	351.834	-983.008	54.292	-159.85	-838.265	234.016	247.808	-971.759	231.414	-45.953	-784.088	-132.555	114.364	-749.371	-117.746	178.896	-822.587	-148.977	42.8	-448.27	-303.516	95.017	-564.205	-353.08	-112.356	-380.015	-648.312	100.279	-496.897	-687.607	-44.736	-250.887	-708.087	34.607	-358.175	-764.549	-106.783
205	10.82	-1022.106	283.087	157.413	-1022.106	283.087	157.413	-919.631	254.526	273.769	-1062.107	220.828	8.129	-780.696	55.912	354.578	-985.742	57.249	-165.91	-835.909	232.2	248.292	-970.795	233.75	-52.25	-785.295	-137.139	112.545	-749.807	-121.695	176.332	-824.65	-154.265	41.808	-451.274	-310.209	92.54	-565.328	-356.983	-111.886	-384.953	-654.616	100.506	-502.097	-691.528	-43.98	-256.867	-716.068	35.086	-365.477	-770.371	-107.356
206	10.894	-1024.994	285.699	158.918	-1024.994	285.699	158.918	-921.361	257.274	277.493	-1068.194	226.736	5.971	-778.017	54.38	355.699	-981.679	60.667	-168.014	-836.927	234.482	249.446	-970.398	240.811	-52.061	-790.909	-146.018	105.778	-753.971	-131.888	170.74	-831.87	-161.687	33.738	-447.035	-318.688	82.88	-566.068	-362.857	-127.503	-389.133	-671.548	87.582	-510.323	-705.693	-59.736	-259.476	-738.077	22.926	-372.185	-790.012	-121.663
207	10.94	-1026.116	286.056	158.676	-1026.116	286.056	158.676	-921.921	259.484	277.023	-1069.212	227.126	5.644	-770.898	62.294	355.908	-980.1	63.903	-169.951	-836.944	239.443	248.615	-972.098	243.123	-52.061	-790.839	-145.505	105.664	-753.876	-131.314	170.654	-831.828	-161.242	33.593	-447.616	-319.184	81.751	-567.026	-363.18	-128.859	-391.006	-672.478	86.631	-510.856	-706.285	-61.654	-261.927	-739.907	21.508	-372.951	-790.875	-124.029
